<svg width="100%" height="100%" viewBox="0 0 620 600"
     xmlns="http://www.w3.org/2000/svg"
     xmlns:xlink="http://www.w3.org/1999/xlink">

  <desc>
    Beaded Pentaskelion - Animated
    
    Animation is done using an animated mask.
    Uses stroke-dasharray in combination with stroke-linecap and stroke-linejoin to create the beads.
    Inspired by http://codepen.io/yoksel/pen/PWEQZJ
        
    Jay Nick
    STEAMcoded.org
  
    Polyskelion code generated by Polyskelion Maker at:
    http://steamcoded.org/PolyskelionMaker.svg

    Polyskelion Maker written by Jay Nick
    Version 2.0 - March, 2017
  </desc>

  <defs>
    <symbol id="sym1" viewBox="0 0 955 995" overflow="visible">
      <g transform="translate(300,195)">
        <path d="M0,0c9.17,-0.81,14.16,16.2,0,25c-12.55,9.53,-41.58,2.51,-50,-25c-9.91,-25.89,9.13,-66.97,50,-75c39.27,-10.28,92.32,20.78,100,75c10.62,52.62,-32.39,117.69,-100,125c-65.96,10.99,-143.08,-44.04,-150,-125c-11.39,-79.34,55.71,-168.43,150,-175c92.69,-11.73,193.8,67.33,200,175c6.2,107.67,107.31,186.74,200,175c94.29,-6.57,161.39,-95.66,150,-175c-6.91,-80.96,-84.05,-135.99,-150,-125c-67.61,7.31,-110.62,72.38,-100,125c7.68,54.22,60.73,85.28,100,75c40.88,-8.03,59.91,-49.11,50,-75c-8.42,-27.51,-37.44,-34.53,-50,-25c-14.16,8.8,-9.17,25.81,0,25c3.6,8.43,-11.02,18.51,-23.78,7.73c-12.91,-8.99,-15.25,-38.78,8.33,-55.28c21.58,-17.42,66.5,-12.01,86.78,24.37c21.88,34.19,8.79,94.22,-40.43,118.29c-46.73,26.38,-121.96,5.54,-149.78,-56.48c-30.85,-59.35,-2.32,-149.66,72.53,-181.29c71.94,-35.31,177.37,0.91,212.78,88.58c39.82,84.55,-4.14,205.1,-104.63,244.29c-100.48,39.19,-144.45,159.74,-104.63,244.29c35.41,87.67,140.84,123.89,212.78,88.58c74.85,-31.63,103.38,-121.94,72.53,-181.29c-27.82,-62.02,-103.05,-82.85,-149.78,-56.48c-49.22,24.07,-62.31,84.1,-40.43,118.29c20.28,36.38,65.2,41.79,86.78,24.37c23.58,-16.5,21.24,-46.29,8.33,-55.28c-12.75,-10.78,-27.38,-0.7,-23.78,7.73c-6.93,6.05,-21.01,-4.8,-14.69,-20.23c4.53,-15.08,32.17,-26.47,55.14,-9.16c23.21,15.13,31.99,59.54,3.63,90.07c-25.72,31.36,-86.87,37.48,-124.98,-1.9c-39.53,-36.34,-42.96,-114.24,7.43,-159.91c46.87,-47.66,141.65,-48.46,194.82,12.96c55.82,57.5,53.97,169,-18.49,229.75c-68.07,63.98,-196.37,59.44,-264.66,-24.02c-68.29,-83.45,-196.58,-88,-264.66,-24.02c-72.46,60.75,-74.3,172.25,-18.49,229.75c53.17,61.42,147.95,60.62,194.82,12.96c50.39,-45.67,46.96,-123.57,7.43,-159.91c-38.1,-39.38,-99.26,-33.26,-124.98,-1.9c-28.36,30.53,-19.58,74.95,3.63,90.07c22.98,17.31,50.6,5.92,55.14,-9.16c6.33,-15.43,-7.76,-26.27,-14.69,-20.23c-7.88,-4.69,-1.93,-21.48,14.69,-20.23c15.75,-0.32,35.14,22.41,25.76,49.62c-7.19,26.76,-46.75,48.8,-84.53,31.29c-37.79,-14.79,-62.49,-71.05,-36.82,-119.46c22.34,-48.81,95.37,-76.18,154.37,-42.35c59.86,29.89,89.84,119.72,47.88,189.3c-37.44,70.84,-144.04,103.52,-224.21,53.41c-81.86,-45.01,-117.24,-168.36,-58.94,-259.14c58.29,-90.79,22.93,-214.13,-58.94,-259.14c-80.17,-50.1,-186.77,-17.44,-224.21,53.41c-41.96,69.58,-11.98,159.41,47.88,189.3c58.99,33.82,132.03,6.47,154.37,-42.35c25.67,-48.42,0.97,-104.66,-36.82,-119.46c-37.78,-17.52,-77.34,4.54,-84.53,31.29c-9.38,27.21,10.01,49.94,25.76,49.62c16.62,1.25,22.57,-15.53,14.69,-20.23c2.05,-8.97,19.79,-8.48,23.78,7.73c5.17,14.86,-10.45,40.33,-39.23,39.82c-27.69,1.4,-60.86,-29.34,-55.88,-70.73c2.38,-40.51,48.27,-81.37,102.23,-71.93c53.33,6.16,101.92,67.18,87.98,133.74c-9.92,66.15,-86.1,122.44,-165.23,104.03c-78.94,-13.7,-142.98,-105.01,-120.08,-196.74c17.48,-91.75,123.91,-163.52,228.23,-136.13c104.33,27.39,210.75,-44.38,228.23,-136.13c22.9,-91.73,-41.13,-183.04,-120.08,-196.74c-79.12,-18.41,-155.31,37.89,-165.23,104.03c-13.94,66.56,34.65,127.58,87.98,133.74c53.95,9.44,99.86,-31.42,102.23,-71.93c4.98,-41.39,-28.19,-72.13,-55.88,-70.73c-28.78,-0.51,-44.4,24.96,-39.23,39.82c3.99,16.2,21.73,16.7,23.78,7.73">
        </path>
      </g>
    </symbol>
    <mask id="m1">
      <rect width="100%" height="100%" style="fill:black;" />
      <g style="fill:black;stroke:white;stroke-width:12px;stroke-linecap:round;stroke-linejoin:round;">
        <animate id="a1" attributeName="stroke-dasharray" values="0,12875.6;12875.6,0;" dur="8s" begin="2s;a1.end+3s" fill="freeze"/>
        <use width="600" height="600" xlink:href="#sym1" />
      </g>
    </mask>
  </defs>

  <rect x="-5000" y="-5000" width="10000" height="10000" style="fill:black;display:none;" />
  <g transform="rotate(-2.9,310,300)"> 
    <use width="600" height="600" xlink:href="#sym1" style="fill:#111;display:none;"/>
    <use width="600" height="600" xlink:href="#sym1" style="fill:#f8f8f8;"/>
    <g style="fill:none;stroke-width:10px;stroke-linecap:round;stroke-linejoin:round;stroke-dasharray:0.1,70;mask:url(#m1);">
      <use width="600" height="600" xlink:href="#sym1" style="stroke:violet;"/>
      <use width="600" height="600" xlink:href="#sym1" style="stroke:purple;stroke-dashoffset:10;"/>
      <use width="600" height="600" xlink:href="#sym1" style="stroke:blue;stroke-dashoffset:20;"/>
      <use width="600" height="600" xlink:href="#sym1" style="stroke:lime;stroke-dashoffset:30;"/>
      <use width="600" height="600" xlink:href="#sym1" style="stroke:yellow;stroke-dashoffset:40;"/>
      <use width="600" height="600" xlink:href="#sym1" style="stroke:orange;stroke-dashoffset:50;"/>
      <use width="600" height="600" xlink:href="#sym1" style="stroke:red;stroke-dashoffset:60;"/>
    </g>
  </g>
  
</svg>